<svg width="135" height="39" viewBox="0 0 135 39" fill="none" xmlns="http://www.w3.org/2000/svg">
<path d="M17.3173 0.4256H25.8955C25.8955 12.638 25.8864 24.8426 25.868 37.0393C23.5135 37.1732 22.3677 37.248 20.0367 37.4015L20.0564 10.8704C18.6201 19.8099 17.1944 28.7507 15.779 37.6929C13.4481 37.8582 12.2866 37.9488 9.95561 38.1338C8.40949 29.294 6.88167 20.4424 5.37217 11.579C5.37217 20.5553 5.37217 29.5342 5.37217 38.5157C3.22173 38.7007 2.15044 38.7952 0 38.9999V0.417725H8.57823C10.0773 9.28901 11.5867 18.1577 13.1067 27.0237C14.4932 18.1603 15.8968 9.29426 17.3173 0.4256Z" fill="#E50014"/>
<path d="M34.5248 2.37792C36.1337 0.803139 38.4515 0.0157471 41.4783 0.0157471C44.5078 0.0157471 46.823 0.803139 48.4319 2.37792C50.0408 3.95271 50.8375 6.14165 50.8375 8.99201V27.5272C50.8375 30.3776 50.0317 32.602 48.4202 34.2004C46.8087 35.7988 44.4895 36.6544 41.4626 36.7673C38.4332 36.8775 36.114 36.1925 34.509 34.6767C32.9041 33.161 32.0996 30.9445 32.1035 28.043C32.1035 21.7438 32.1035 15.4447 32.1035 9.14556C32.1088 6.22958 32.9158 3.9737 34.5248 2.37792ZM41.4587 31.6059C43.5895 31.539 44.6569 30.3343 44.6569 27.98V8.64556C44.6569 6.28339 43.5921 5.11148 41.4626 5.12985C39.3331 5.14823 38.2671 6.3385 38.2645 8.70068V28.1611C38.2514 30.5285 39.3161 31.6768 41.4587 31.6059Z" fill="#E50014"/>
<path d="M71.0235 0.405884H76.7017C74.6873 12.2168 72.6703 24.0355 70.6507 35.8621C66.9698 35.8621 65.1294 35.8622 61.4485 35.8818C59.4289 24.071 57.4119 12.247 55.3975 0.409825H61.6212L66.3302 29.3268C67.8946 19.6865 69.4591 10.0462 71.0235 0.405884Z" fill="#E50014"/>
<path d="M87.9559 0.409912C87.9559 12.3232 87.9559 24.2351 87.9559 36.1457C85.4876 36.0748 84.2515 36.0473 81.7832 35.9961C81.7832 24.1353 81.7832 12.2733 81.7832 0.409912H87.9559Z" fill="#E50014"/>
<path d="M109.327 15.8665C109.327 17.961 109.327 19.0161 109.327 21.0987C105.941 20.9885 104.249 20.9373 100.863 20.8507C100.863 25.0908 100.863 27.2128 100.863 31.4529C105.124 31.6222 107.255 31.7207 111.513 31.9451V37.197C105.909 36.8741 100.303 36.5985 94.694 36.3702C94.694 24.3808 94.6848 12.3954 94.6665 0.41394H111.485C111.485 2.51628 111.485 3.56351 111.485 5.66979C107.228 5.63042 105.097 5.61073 100.835 5.57923V15.6697C104.249 15.7445 105.941 15.7799 109.327 15.8665Z" fill="#E50014"/>
<path d="M119.083 2.42517C120.613 0.814952 122.873 0 125.867 0C128.862 0 131.118 0.822823 132.648 2.49603C134.179 4.16924 134.948 6.57472 134.948 9.69673V10.9093L129.12 10.7636V9.18886C129.12 7.88179 128.858 6.92905 128.336 6.32276C128.042 6.0106 127.684 5.76645 127.287 5.60733C126.89 5.44822 126.463 5.37798 126.036 5.40151C125.613 5.36666 125.188 5.42587 124.79 5.5749C124.393 5.72394 124.033 5.95913 123.737 6.2637C123.213 6.84637 122.952 7.78074 122.952 9.06682C122.928 10.5634 123.39 12.0272 124.27 13.2361C125.455 14.7502 126.778 16.15 128.222 17.4171C129.469 18.5497 130.648 19.7552 131.754 21.0273C132.702 22.1614 133.475 23.4314 134.049 24.795C134.703 26.3652 135.026 28.054 134.999 29.7555C134.999 32.8776 134.214 35.2161 132.644 36.7437C131.075 38.2712 128.799 38.8893 125.816 38.6452C122.834 38.4011 120.55 37.4169 118.98 35.6964C117.411 33.976 116.626 31.6256 116.626 28.6099V26.3422C118.957 26.4564 120.122 26.5154 122.453 26.6375V29.3185C122.453 31.7476 123.521 33.0311 125.648 33.1807C127.775 33.3303 128.838 32.1807 128.838 29.7162C128.861 28.193 128.399 26.7023 127.519 25.4603C126.352 23.9148 125.029 22.494 123.572 21.2202C122.335 20.1002 121.156 18.9175 120.04 17.677C119.098 16.5959 118.322 15.3789 117.74 14.0668C117.087 12.5793 116.762 10.9677 116.787 9.34241C116.776 6.33195 117.542 4.0262 119.083 2.42517Z" fill="#E50014"/>
</svg>
